<svg width="64" height="64" viewBox="0 0 64 64" fill="none" xmlns="http://www.w3.org/2000/svg">
<path d="M34.27 8.06982C34.27 8.06982 29.45 10.5048 28.345 14.8848C27.235 19.2598 28.955 22.9148 28.125 25.2998C27.295 27.6848 26.24 28.5148 25.855 29.1198C25.465 29.7298 22.755 31.7798 22.755 31.7798L24.585 32.9998C24.585 32.9998 29.295 28.8998 29.905 25.2998C30.49 21.8398 29.13 17.9348 30.015 15.2198C30.88 12.5698 32.95 10.8448 34.67 9.73482C36.61 8.46982 34.27 8.06982 34.27 8.06982Z" fill="#BBCCD3"/>
<path d="M13.375 48.77C12.84 48.625 10.26 49.645 8.06501 50.33C5.87001 51.015 4.26501 51.305 4.31501 51.79C4.36501 52.275 5.92001 53.2 7.87001 53.445C9.82001 53.69 11.035 52.96 11.035 52.96C11.035 52.96 11.23 54.08 11.765 55.3C12.495 56.955 14.055 58.37 14.64 58.125C15.045 57.955 14.2 51.015 14.155 50.285C14.11 49.555 13.375 48.77 13.375 48.77ZM13.715 32.895C13.715 32.895 13.375 32.605 12.74 32.605C12.105 32.605 7.19001 34.405 7.19001 35.185C7.19001 35.965 7.97001 38.3 8.89501 40.3C9.82001 42.3 11.77 45.85 11.77 45.85L13.715 32.895Z" fill="#1966A4"/>
<path d="M11.97 51.3952C11.97 51.3952 9.335 41.6602 11.38 35.4002C13.13 30.0552 17.685 28.4152 19.63 28.0252C21.58 27.6352 24.575 28.0702 24.575 28.0702L25.16 28.4602L25.405 31.3802L27.89 30.4552C27.89 30.4552 30.82 36.6752 26.915 43.0702C21.745 51.5352 11.92 51.5402 11.97 51.3952Z" fill="url(#paint0_radial_400_285)"/>
<path d="M20.05 38.74C19.62 39.17 19.125 41.37 19.125 43.61C19.125 45.85 18.98 47.165 19.415 47.31C19.85 47.455 22.19 44.925 22.63 41.855C23.07 38.785 20.63 38.155 20.05 38.74ZM24.43 28.065C24.43 28.065 24.83 27.525 25.265 27.575C25.7 27.625 25.955 28.01 25.955 28.24C25.955 28.47 25.905 30.64 25.905 30.64C25.905 30.64 27.085 29.92 27.31 29.85C27.72 29.72 28.205 30.18 28.125 30.64C28.045 31.1 26.03 32.58 25.19 32.225C24.505 31.935 24.4 30.695 24.4 30.005C24.4 29.315 24.43 28.065 24.43 28.065Z" fill="#1966A4"/>
<path d="M20.105 32.25C19.67 32.66 19.52 33.655 20.285 34.24C20.87 34.69 21.76 34.42 22.1 34.01C22.585 33.425 22.28 32.4 21.74 32.07C21.2 31.74 20.515 31.865 20.105 32.25Z" fill="#292D26"/>
<path d="M54.635 39.1998L50.355 37.8298C50.355 37.8298 61.325 11.0098 52.355 6.19981C43.735 1.57481 36.1 9.23481 35.3 9.80981C34.5 10.3798 33.74 10.3148 33.51 9.91481C33.28 9.51481 32.995 8.54481 34.765 7.05981C36.535 5.57481 42.955 -1.00519 52.805 2.94981C62.34 6.77481 59.185 21.0548 58.915 23.6198C58.405 28.4698 54.635 39.1998 54.635 39.1998Z" fill="#40717B"/>
<path d="M50.295 36.5202C50.85 35.8402 51.33 35.5552 53.5 36.3552C55.67 37.1552 55.555 38.2752 55.32 38.9202C55.175 39.3102 53.575 44.9052 51.12 51.0102C48.665 57.1152 46.925 60.4452 46.585 60.9002C46.245 61.3552 45.33 62.2702 43.16 61.6402C40.99 61.0102 40.92 58.6852 41.16 57.9302C41.675 56.3302 45.555 48.8502 47.27 44.1702C48.985 39.4902 49.74 37.2002 50.295 36.5202Z" fill="#E3C08C"/>
<path d="M51.05 39.9349C50.165 39.6399 49.595 40.3699 48.87 42.2599C48.145 44.1499 47.415 45.5549 47.415 45.5549C47.415 45.5549 46.93 47.2499 48.045 47.6349C49.16 48.0199 49.665 46.8699 50.03 45.9399C50.565 44.5849 51.335 42.7899 51.58 41.9699C51.825 41.1449 51.92 40.2249 51.05 39.9349ZM43.59 43.8549L38.165 44.5799C38.165 44.5799 37.8 45.4149 37.455 46.4349C37.065 46.6299 36.235 47.0549 35.455 47.4849C34.39 48.0649 33.565 48.4999 33.565 48.4999H31.675L31.245 51.2499C31.245 51.2499 32.17 51.7349 33.245 51.7099C34.11 51.6899 36.06 50.2099 36.87 49.5349C36.885 49.6049 36.905 49.6749 36.92 49.7399C37.135 50.6849 37.895 51.1399 37.895 51.1399C37.895 51.1399 36.545 53.7649 36.9 54.6999C37.165 55.3899 38.72 56.4049 40.27 56.3449C41.43 56.2949 42.595 52.9199 42.595 52.9199C42.595 52.9199 44.58 53.2049 45.645 51.2199C46.71 49.2349 47.12 47.8449 47.12 47.8449L43.59 43.8549Z" fill="#40727B"/>
<path d="M28.875 48.6202C28.44 49.7752 28.875 50.7852 30.25 51.3652C31.625 51.9452 32.705 51.6852 32.705 51.6852C32.705 51.6852 31.915 50.4852 32.44 49.5502C32.91 48.7152 33.57 48.5002 33.57 48.5002C33.57 48.5002 32.565 47.2352 30.98 47.1802C30.13 47.1602 29.225 47.6852 28.875 48.6202Z" fill="#F5A055"/>
<path d="M44.945 41.0798C41.845 39.9048 40.27 41.0498 39.625 41.7248C38.98 42.3948 38.165 44.5848 38.165 44.5848C38.165 44.5848 40.38 44.8398 42.845 45.8198C45.285 46.7898 47.05 48.0648 47.05 48.0648C47.05 48.0648 48.24 45.4448 47.76 43.8448C47.43 42.7348 46.875 41.8098 44.945 41.0798Z" fill="#6AA5AD"/>
<defs>
<radialGradient id="paint0_radial_400_285" cx="0" cy="0" r="1" gradientUnits="userSpaceOnUse" gradientTransform="translate(5.4705 31.0187) scale(23.4135)">
<stop offset="0.776" stop-color="#1383BB"/>
<stop offset="0.798" stop-color="#208BC0"/>
<stop offset="0.84" stop-color="#42A0CE"/>
<stop offset="0.896" stop-color="#79C1E3"/>
<stop offset="0.918" stop-color="#90CFEC"/>
</radialGradient>
</defs>
</svg>
