<svg width="64" height="64" viewBox="0 0 64 64" fill="none" xmlns="http://www.w3.org/2000/svg">
<path d="M60.2 33.1951C58.87 31.0051 57.09 30.4151 57.09 30.4151C57.09 30.4151 56.71 28.2901 54.875 26.7651C52.95 25.1701 49.795 24.6901 45.935 24.9801C41.265 25.3301 36.995 28.5451 36.995 28.5451C36.995 28.5451 35.61 26.2201 33.875 25.0251C32.63 24.1651 29.11 22.1151 25.215 21.8801C20.225 21.5801 14.235 22.6551 14.235 22.6551C14.235 22.6551 10.455 20.5901 9.4 19.7201C8.345 18.8501 7.005 17.3051 5.925 16.3401C4.91 15.4351 4.26 14.3201 3.65 14.5101C3.275 14.6251 3.135 15.0501 3.32 15.5401C3.505 16.0301 5.125 18.4051 5.41 18.8701C5.69 19.3401 7.475 21.8251 7.475 21.8251C7.475 21.8251 6.23 21.4051 5.225 20.8401C4.645 20.5151 2.855 19.6901 2.41 20.2051C1.855 20.8451 4.145 22.2451 5.13 22.9251C6.115 23.6051 8.39 25.4351 8.39 25.4351C8.39 25.4351 7.85 25.4801 7.075 25.4801C6.3 25.4801 5.55 25.5951 5.665 26.1851C5.78 26.7701 7.45 27.0751 8.505 27.5951C9.56 28.1101 12.025 28.9551 12.025 28.9551L17.165 31.7701L20.965 35.4551C20.965 35.4551 17.725 35.5501 16.975 35.3401C16.225 35.1301 15.03 34.4701 14.44 34.3551C13.855 34.2401 11.575 35.5051 9.865 36.2551C8.155 37.0051 7.075 37.6001 7.145 37.9701C7.3 38.8051 8.88 38.5101 9.75 38.3201C10.62 38.1301 14.37 36.6551 14.37 36.6551C14.37 36.6551 14.78 37.0201 15.17 37.2751C15.715 37.6401 16.435 37.9651 16.435 37.9651C16.435 37.9651 15.26 38.0101 14.745 38.3401C14.23 38.6701 13.995 39.4201 13.715 40.2151C13.435 41.0151 11.98 43.5951 11.37 44.4851C10.76 45.3751 9.495 47.1351 9.82 47.6051C10.15 48.0751 10.57 47.9801 10.9 47.7951C11.23 47.6051 13.385 45.0051 14.185 43.9701C14.985 42.9401 16.72 40.4051 16.72 40.4051C16.72 40.4051 17.495 40.5851 17.845 40.6401C18.315 40.7101 19.395 40.7801 19.395 40.7801C19.395 40.7801 18.325 41.1301 18.175 42.0451C18.07 42.6751 17.4 44.4851 17.215 45.2851C17.025 46.0851 15.69 48.6651 15.595 49.0851C15.5 49.5051 15.535 50.7751 15.63 51.6201C15.725 52.4651 15.785 53.9651 16.58 53.8701C17.38 53.7751 17.425 50.1151 17.425 50.1151C17.425 50.1151 18.835 47.9801 19.395 46.7601C19.96 45.5401 20.57 42.9351 20.57 42.9351C20.57 42.9351 21.955 43.0501 22.47 43.0501C22.985 43.0501 24.135 42.9351 24.135 42.9351C24.135 42.9351 23.195 47.8601 23.48 50.4901C23.76 53.1201 24.44 56.2601 25.24 56.2601C26.04 56.2601 25.93 54.6901 25.98 53.4201C26.025 52.1551 25.735 51.6601 25.875 49.5001C26.015 47.3401 27.095 43.5401 27.095 43.5401C27.095 43.5401 30.92 43.9151 32.68 43.5401C33.875 43.2851 36.15 42.8101 37.21 41.8251C37.865 41.2151 37.935 40.5801 37.935 40.5801L41.245 40.5101L48.355 40.0651L51.475 37.4351C51.475 37.4351 52.39 37.9501 53.08 38.7951C53.77 39.6401 54.5 40.3451 54.7 42.0701C54.9 43.7951 54.805 45.7901 54.805 45.7901C54.805 45.7901 53.325 46.2351 52.015 46.8701C50.56 47.5751 48.395 49.4851 47.555 50.4351C46.5 51.6301 45.535 53.6251 45.77 53.9101C46.005 54.1901 48.08 53.6851 48.775 53.4401C49.46 53.1951 51.495 52.1751 51.495 52.1751C51.495 52.1751 50.465 53.3951 49.9 54.1001C49.335 54.8051 47.415 57.4301 47.46 57.8551C47.505 58.2751 51.59 58.0201 54.5 56.8251C57.22 55.7051 59.64 52.8151 60.18 50.6801C60.655 48.7951 60.155 46.2801 60.155 46.2801L60.685 45.0001C60.685 45.0001 61.375 43.7401 61.635 41.8801C61.865 40.2101 61.935 36.0551 60.2 33.1951ZM33.475 40.2551C32.725 40.5601 31.69 40.5151 31.69 40.5151C31.69 40.5151 32.575 40.1001 32.885 39.8801C33.285 39.6001 33.705 39.3401 34.15 39.4801C34.595 39.6201 34.225 39.9501 33.475 40.2551Z" fill="#FE6117"/>
<path d="M13.155 23.4648C12.97 23.4648 12.785 23.3898 12.65 23.2398C12.395 22.9598 12.41 22.5248 12.69 22.2698C12.905 22.0748 18.005 17.4198 22.675 15.6548C26.825 14.0898 30.76 13.3798 34.715 13.4998C36.08 13.5398 38.18 13.7548 40.4 13.9848C43.415 14.2948 46.83 14.6548 49.045 14.6248C52.81 14.5798 55.395 13.9898 55.42 13.9848C55.5955 13.9497 55.7777 13.9843 55.928 14.0813C56.0784 14.1783 56.1851 14.33 56.2254 14.5044C56.2657 14.6787 56.2365 14.8619 56.1441 15.015C56.0516 15.1682 55.9031 15.2793 55.73 15.3248C55.62 15.3498 52.985 15.9498 49.06 15.9998C46.765 16.0348 43.305 15.6698 40.255 15.3548C38.06 15.1298 35.99 14.9148 34.67 14.8748C30.9 14.7598 27.135 15.4398 23.155 16.9398C18.735 18.6098 13.665 23.2348 13.615 23.2798C13.4922 23.3998 13.3268 23.4664 13.155 23.4648Z" fill="#FE6117"/>
<path d="M10.5751 21.5851C10.452 21.585 10.3313 21.552 10.2254 21.4894C10.1195 21.4267 10.0324 21.3368 9.97316 21.229C9.9139 21.1212 9.88467 20.9995 9.88852 20.8765C9.89237 20.7536 9.92917 20.6339 9.99506 20.5301C10.0901 20.3801 12.3251 16.8651 15.6651 14.8651C18.6951 13.0501 23.4701 10.8151 29.0251 10.5001C34.0801 10.2101 38.2401 10.0751 42.1101 10.0751C45.5901 10.0751 48.3851 9.80005 49.6101 9.53005C50.7651 9.27505 51.9101 8.66505 51.9201 8.65505C52.2551 8.47505 52.6701 8.60005 52.8501 8.93505C53.0301 9.27005 52.9051 9.68505 52.5701 9.86505C52.5151 9.89505 51.2501 10.5701 49.9051 10.8701C48.6051 11.1601 45.6951 11.4501 42.1051 11.4501C38.2601 11.4501 34.1251 11.5851 29.1001 11.8701C23.8251 12.1701 19.2651 14.3051 16.3701 16.0451C13.3101 17.8801 11.1751 21.2301 11.1551 21.2651C11.0251 21.4751 10.8001 21.5851 10.5751 21.5851Z" fill="#FE6117"/>
<path d="M54.8501 44.3148C54.8501 44.3148 56.0401 45.3148 57.5151 45.5448C59.3101 45.8248 60.6851 45.0148 60.6851 45.0148L60.2251 46.8098C60.2251 46.8098 58.9351 47.3848 57.1751 47.0348C55.7751 46.7548 54.8051 45.9648 54.8051 45.9648L54.8501 44.3148ZM54.2651 40.4548C54.2651 40.4548 56.7301 40.4898 58.5601 39.8548C60.5051 39.1798 61.6351 37.6498 61.6351 37.6498L61.7751 39.9248C61.7751 39.9248 61.0601 40.9348 58.9101 41.7098C57.4001 42.2548 54.7001 42.0948 54.7001 42.0948L54.2651 40.4548ZM42.0651 25.8248L40.3851 26.5498C40.3851 26.5498 43.7201 29.9948 44.1051 32.9448C44.5251 36.1848 43.3651 38.4298 43.0501 39.1398C42.7701 39.7748 42.4151 40.3698 42.4151 40.3698L40.4451 40.5098C40.4451 40.5098 40.9351 42.7198 43.4001 42.8348C46.4251 42.9748 46.9201 40.4398 46.9201 40.4398C46.9201 40.4398 48.0801 42.5848 50.5101 41.5298C52.9401 40.4748 51.9201 38.0098 51.9201 38.0098L53.0801 38.8198C53.0801 38.8198 55.2451 37.8998 56.6351 35.1948C57.8651 32.7998 57.9151 30.7598 57.7501 30.6448C57.5851 30.5298 57.0951 30.4098 57.0951 30.4098C57.0951 30.4098 56.7651 29.0498 56.5901 28.9448C56.6001 29.4148 56.5301 31.5398 55.8651 33.4048C55.3251 34.9048 54.4501 36.1698 53.4001 36.8898C52.7301 37.3498 52.2051 37.2748 52.2051 37.2748C52.2051 37.2748 53.6851 34.4948 52.9451 30.3748C52.3151 26.8748 49.8501 24.9648 49.8501 24.9648L47.6351 24.8848C47.6351 24.8848 50.5201 26.5398 51.2601 30.9398C51.8351 34.3748 50.5551 37.5898 49.7451 38.2598C48.9351 38.9298 44.4651 39.8448 44.4651 39.8448C44.4651 39.8448 46.2951 36.2548 45.8751 33.0498C45.4301 29.7798 43.5051 27.1648 42.0651 25.8248ZM20.8401 29.1448C20.4351 29.6848 20.9451 30.3048 22.3551 30.8348C23.7651 31.3648 25.8801 31.5248 27.1751 31.6448C28.7251 31.7848 31.7501 31.3998 32.3151 31.1498C32.8801 30.9048 33.0551 30.1648 32.7351 29.8148C32.4151 29.4648 31.6451 29.6048 31.0451 29.7798C30.4451 29.9548 29.3901 30.1798 27.2801 30.0948C25.4501 30.0248 23.1451 29.6948 22.4951 29.3898C21.9651 29.1448 21.2601 28.5848 20.8401 29.1448Z" fill="#FE8E06"/>
<path d="M12.03 28.9701C12.03 28.9701 15.455 34.4601 22.87 36.4301C28.665 37.9701 31.88 36.4751 32.725 36.0101C33.57 35.5401 34.495 34.5301 34.225 33.6151C33.895 32.4901 31.845 32.5601 28.23 32.8401C24.615 33.1201 18.41 31.2701 17.095 30.8001C15.78 30.3301 12.45 28.8301 12.03 28.9701Z" fill="#FE8E06"/>
<path d="M19.02 26.2949C18.395 27.2199 16.77 27.4549 15.87 26.7449C14.995 26.0549 14.92 24.8699 15.545 23.9499C16.17 23.0299 17.625 22.7149 18.55 23.3399C19.475 23.9649 19.645 25.3749 19.02 26.2949Z" fill="#302C30"/>
</svg>
