<svg width="64" height="64" viewBox="0 0 64 64" fill="none" xmlns="http://www.w3.org/2000/svg">
<path d="M52.605 42.4098C51.28 40.3498 44.755 33.3048 43.355 31.4848C41.955 29.6648 38.355 19.2848 34.89 18.2498C31.425 17.2098 28.005 17.4798 24.385 18.5498C20.765 19.6198 17.38 19.5198 13.36 18.3798C9.34 17.2398 5.05 14.5498 5.05 14.5498C3.185 15.9748 2.225 19.9548 2.025 25.5848C1.825 31.2148 2.885 34.2748 3.255 35.2048C3.625 36.1348 6.405 37.5098 9.535 39.9298C9.805 40.1348 32.025 55.3148 32.495 55.5298C35.89 57.0748 38.05 53.9498 38.05 53.9498C38.05 53.9498 39.85 54.9798 41.59 53.9498C43.715 52.6898 43.465 51.1248 43.465 51.1248C43.465 51.1248 45.525 51.4598 46.77 50.6448C49.145 49.0898 48.38 47.2948 48.38 47.2948C48.38 47.2948 50.5 47.9748 51.75 46.8548C53 45.7348 53.925 44.4698 52.605 42.4098Z" fill="#F9DDBD"/>
<path d="M29.2 50.9898C29.17 50.9098 29.14 50.8298 29.095 50.7498C28.125 48.8748 26.28 48.9498 26.2 48.8848C26.095 48.8048 26.115 47.4048 26 46.8598C25.39 44.0048 22.09 44.0798 22.005 44.0198C21.89 43.9448 22.495 41.9948 20.585 40.3498C20.13 39.9548 19.44 39.9948 18.84 40.0648C17.155 40.2698 16.385 41.0598 16.265 41.0348C15.98 40.9798 16.3 38.8898 14.23 38.8198C12.725 38.7698 11.74 39.5048 10.91 40.6448C10.06 41.8148 9.53 42.9998 10.495 44.3848C11.71 46.1298 13.04 45.6598 13.04 45.6598C13.04 45.6598 12.64 47.7948 13.865 48.9348C15.09 50.0748 17.56 50.0048 17.56 50.0048C17.56 50.0048 17.355 52.5248 19.135 53.7248C20.915 54.9248 23.05 53.8348 23.05 53.8348C23.05 53.8348 23.88 55.9848 26.305 55.6698C28.43 55.3998 30.005 53.1048 29.2 50.9898Z" fill="#E0BB95"/>
<path d="M52.94 43.0601C52.85 42.9201 52.775 42.8051 52.765 42.6351C52.755 42.4451 47.685 35.7201 45.55 33.0151C45.98 34.2501 46.6 35.4251 47.39 36.4701C48.665 38.1601 50.455 39.7451 50.49 41.8601C50.505 42.9001 50.045 43.9401 49.26 44.6251C48.475 45.3101 47.385 45.6301 46.355 45.4701C46.025 45.4201 45.55 45.4201 45.51 45.7501C45.495 45.8451 45.535 45.9401 45.565 46.0351C45.895 47.0551 45.49 48.2451 44.655 48.9151C43.82 49.5901 42.63 49.7451 41.615 49.3951C41.35 49.3051 41 49.2001 40.835 49.4251C40.705 49.6001 40.79 49.8401 40.85 50.0451C41.165 51.1651 40.42 52.4051 39.35 52.8651C38.285 53.3251 37.01 53.1051 36.01 52.5151C35.79 52.3851 35.44 52.2701 35.33 52.5051C35.295 52.5751 35.305 52.6601 35.31 52.7351C35.35 53.5101 34.985 54.3001 34.365 54.7701C33.745 55.2401 32.89 55.3801 32.15 55.1301L31.965 55.2451C32.185 55.3751 32.37 55.4701 32.49 55.5251C35.885 57.0701 38.045 53.9451 38.045 53.9451C38.045 53.9451 39.845 54.9751 41.585 53.9451C43.71 52.6851 43.46 51.1201 43.46 51.1201C43.46 51.1201 45.52 51.4551 46.765 50.6401C49.14 49.0851 48.375 47.2901 48.375 47.2901C48.375 47.2901 50.495 47.9701 51.745 46.8501C52.055 46.5751 52.35 46.2851 52.605 45.9601C53.105 45.3201 53.36 44.5601 53.19 43.7501C53.14 43.5101 53.07 43.2651 52.94 43.0601Z" fill="#FFD29C"/>
<path d="M36.81 52.9299C38.32 53.8699 38.93 54.2799 38.93 54.2799C38.385 54.3449 37.195 54.5699 34.35 52.3699C33.565 51.7649 30.435 49.3449 31.885 48.7499C32.955 48.3099 34.685 51.6099 36.81 52.9299ZM43.42 51.3199C42.48 51.2399 38.79 49.0949 35.93 46.1449C35.63 45.8349 35.35 45.5699 35.115 45.3449C34.83 45.0699 34.82 44.6149 35.095 44.3249C35.1606 44.2564 35.239 44.2016 35.3258 44.1635C35.4126 44.1255 35.5061 44.1049 35.6008 44.1031C35.6956 44.1012 35.7898 44.1181 35.878 44.1527C35.9663 44.1873 36.0468 44.2391 36.115 44.3049C36.355 44.5349 36.635 44.8099 36.945 45.1199C37.595 45.7649 39.255 47.6299 42.53 49.8799C43.265 50.3849 44.19 50.8949 45.04 51.1699C45.135 51.1999 44.355 51.3999 43.42 51.3199ZM47.245 46.9299C45.255 46.0549 43.315 44.2549 39.975 39.9699C39.73 39.6549 39.77 39.2049 40.08 38.9549C40.39 38.7049 40.845 38.7499 41.095 39.0599C42.165 40.3699 43.265 41.6599 44.445 42.8749C44.91 43.3549 47.075 45.2149 47.35 45.4099C49.945 47.2099 51.01 47.3299 51.01 47.3299C50.705 47.4549 49.525 47.9299 47.245 46.9299ZM4.305 36.3549C4.08 36.1899 4.285 35.8399 4.535 35.9549C6 36.6149 8.06 37.5799 9.62 38.3749C11.055 39.1049 11.935 39.5399 11.935 39.5399L10.49 40.9449L4.305 36.3549Z" fill="#DBA870"/>
<path d="M61.655 23.3752C60.915 18.4502 59.94 15.1002 59.215 14.2902C58.385 13.3702 56.96 15.2002 53.945 16.2702C50.93 17.3402 45.5 17.7452 45.5 17.7452C45.5 17.7452 36.005 17.7252 32.68 18.6552C30.055 19.3902 26.805 21.4702 24.075 23.1202C21.895 24.4402 19.93 25.3052 19.765 26.2602C19.61 27.1702 20.62 29.2052 23.13 29.4102C27.205 29.7452 31.515 27.1702 31.515 27.1702C32.91 26.3802 33.43 26.2852 36.215 26.2852C39 26.2852 41.87 28.4102 42.075 28.7502C44.155 32.1752 46.025 33.9152 47.935 36.2352C49.33 37.9302 52.61 42.4152 52.61 42.4152C52.61 42.4152 56.295 38.0602 57.235 37.0552C58.175 36.0502 61.66 33.5052 61.66 33.5052C61.66 33.5052 62.43 28.5302 61.655 23.3752Z" fill="#E0BB95"/>
<path d="M52.755 38.4602C52.45 36.6302 51.565 34.8352 51.985 33.0402C52.05 32.7752 52.11 32.5102 52.14 32.2402C52.28 30.8102 50.93 31.4352 50.73 31.4552C50.215 31.5102 44.295 31.2902 44.955 31.9602L52.605 42.3102C52.605 42.3102 52.905 42.2152 52.975 41.4752C53.05 40.7252 52.78 38.6152 52.755 38.4602Z" fill="#CCA47A"/>
<path d="M47.935 32.0748L41.79 29.9448C42.6 30.7448 43.275 31.6098 44.045 32.4048C46.385 35.1298 49.92 39.7598 52.55 42.3998C52.66 42.5098 52.835 42.3698 52.755 42.2398C51.295 39.9348 47.545 33.9798 47.35 33.3948C46.98 32.2598 47.935 32.0748 47.935 32.0748Z" fill="#DBA870"/>
<path d="M36.715 27.3198C38.99 27.7248 39.67 28.2698 41.535 29.6948C46.115 33.1848 50.29 31.8598 50.825 31.6948C53.765 30.8298 48.42 30.8298 47.58 30.5048C40.825 28.9248 40.395 23.9848 32.21 26.2198C29.445 27.2298 24.935 30.8648 21.4 28.3498C20.895 27.9898 20.085 27.2648 20.175 26.4598C20.345 24.8998 24.475 23.9648 26.26 22.3598C28.695 20.4748 31.745 19.0248 34.73 18.2548C33.265 18.0898 31.6 18.4048 30.385 18.7998C27.13 19.8648 24.875 22.3198 21.41 23.6898C18.545 24.8198 18.79 25.7798 18.795 26.4448C18.8 27.1098 19.325 28.8498 20.91 29.7048C26.89 32.9198 31.155 26.3248 36.715 27.3198ZM29.535 53.4248C29.355 53.8748 28.595 54.6498 28.2 54.7798C28.2 54.7798 29.395 52.1698 28.75 50.9948C28.355 50.0048 27.175 49.6398 26.2 49.8598C24.63 50.3648 23.65 52.7648 23.39 54.2448C23.32 54.6298 22.9 53.9348 22.96 53.1598C23.165 50.5398 25.175 49.5248 25.395 47.2198C25.535 45.7948 24.17 44.7648 22.77 45.0598C20.945 45.2648 20.1 47.0148 19.225 48.4348C18.84 49.1148 18.06 50.4148 17.98 51.1898C17.91 51.8648 17.745 52.0048 17.585 51.1648C16.89 47.5998 21.37 44.5248 21.095 42.5898C20.805 40.5398 19.3 40.1698 18 40.7648C16.06 41.6598 14.16 44.8148 13.425 46.3048C13.215 46.6048 13.05 47.4198 13.05 47.4198C12.35 45.6998 13.855 43.4148 14.605 42.3298C14.93 41.7798 15.635 41.1198 15.34 40.4498C14.885 39.4098 14.11 39.4348 13.48 39.5598C11.855 39.8848 10.025 42.2098 10.025 42.2098C9.965 41.6198 10.7 40.4498 11.27 39.7798C12.69 38.0698 15.75 37.7598 16.82 40.3648C19.73 38.3748 22.82 39.5648 22.705 43.2898C22.82 43.6298 24.095 43.2248 25.64 44.4098C27.19 45.5948 26.71 48.2848 26.71 48.2848C26.71 48.2848 28.26 48.4498 29.115 49.5248C29.905 50.5198 30.03 52.3798 29.535 53.4248ZM51.865 40.8148C51.865 40.8148 55.525 37.1498 56.84 36.3048C58.155 35.4598 60.075 34.3048 60.14 34.6298C60.205 34.9548 57.08 37.1548 55.905 38.5348C54.735 39.9198 52.765 42.2348 52.765 42.2348L51.865 40.8148Z" fill="#AA7D55"/>
</svg>
