<svg width="128" height="128" viewBox="0 0 128 128" fill="none" xmlns="http://www.w3.org/2000/svg">
<path d="M90.6667 90.6134C83.4667 90.6134 78.9333 92.8534 74.9333 94.88C71.4667 96.64 68.64 98.08 64 98.08C59.2 98.08 56.5333 96.7467 53.0667 94.88C49.0667 92.8534 44.6933 90.6134 37.3333 90.6134C29.9733 90.6134 25.6 92.8534 21.6 94.88C19.3067 96.0534 17.28 97.0667 14.8267 97.6534C12.4267 98.1867 10.6667 100.107 10.6667 102.507V103.04C10.6667 106.24 13.6533 108.533 16.7467 107.893C20.6933 107.093 23.68 105.6 26.4 104.213C29.8667 102.453 32.64 101.013 37.3333 101.013C42.0267 101.013 44.8 102.347 48.2667 104.213C52.2667 106.24 56.64 108.48 64 108.48C71.36 108.48 75.7333 106.24 79.7333 104.213C83.2 102.453 86.0267 101.013 90.6667 101.013C95.4667 101.013 98.1333 102.347 101.6 104.213C104.373 105.6 107.36 107.147 111.36 107.947C112.081 108.087 112.823 108.068 113.535 107.89C114.248 107.712 114.912 107.38 115.482 106.917C116.052 106.454 116.513 105.872 116.833 105.211C117.153 104.55 117.323 103.827 117.333 103.093V102.613C117.333 100.16 115.52 98.24 113.12 97.7067C110.667 97.1734 108.693 96.16 106.4 94.9333C102.4 92.8533 97.8667 90.6134 90.6667 90.6134ZM90.6667 66.88C83.4667 66.88 78.9333 69.1734 74.9333 71.1467C71.4667 72.8534 68.64 74.3467 64 74.3467C59.2 74.3467 56.5333 73.0134 53.0667 71.1467C49.0667 69.12 44.6933 66.88 37.3333 66.88C29.9733 66.88 25.6 69.1734 21.6 71.1467C19.3067 72.2667 17.28 73.3334 14.7733 73.92C12.4267 74.4534 10.6667 76.3734 10.6667 78.7734V79.3067C10.667 80.0438 10.8316 80.7717 11.1485 81.4372C11.4655 82.1028 11.9268 82.6893 12.4989 83.1542C13.071 83.619 13.7396 83.9505 14.4559 84.1245C15.1723 84.2985 15.9184 84.3106 16.64 84.16C20.64 83.36 23.6267 81.8134 26.4 80.48C29.8667 78.6134 32.5333 77.28 37.3333 77.28C42.1333 77.28 44.8 78.6134 48.2667 80.48C52.2667 82.5067 56.64 84.7467 64 84.7467C71.36 84.7467 75.7333 82.4534 79.7333 80.48C83.2 78.6134 85.8667 77.28 90.6667 77.28C95.4667 77.28 98.1333 78.6134 101.6 80.48C104.373 81.8667 107.36 83.4134 111.36 84.2134C112.085 84.3548 112.832 84.3343 113.548 84.1534C114.264 83.9724 114.931 83.6355 115.502 83.1667C116.073 82.6979 116.533 82.1088 116.85 81.4415C117.166 80.7742 117.331 80.0453 117.333 79.3067V78.8267C117.333 76.3734 115.52 74.4534 113.12 73.92C110.667 73.3867 108.693 72.3734 106.4 71.1467C102.4 69.12 97.8667 66.88 90.6667 66.88ZM106.4 23.7867C102.4 21.76 97.9733 19.52 90.6667 19.52C83.36 19.52 78.9333 21.76 74.9333 23.7867C71.4667 25.4934 68.64 26.9867 64 26.9867C59.2 26.9867 56.5333 25.6534 53.0667 23.7867C49.0667 21.8134 44.6933 19.52 37.3333 19.52C29.9733 19.52 25.6 21.76 21.6 23.7867C19.3067 24.96 17.28 25.9734 14.8267 26.56C12.4267 27.0934 10.6667 29.0134 10.6667 31.4134V31.7867C10.6667 34.9867 13.5467 37.3334 16.64 36.6934C20.64 35.8934 23.6267 34.3467 26.4 33.0134C29.8667 31.2534 32.64 29.8134 37.3333 29.8134C42.0267 29.8134 44.8 31.1467 48.2667 33.0134C52.2667 35.04 56.64 37.28 64 37.28C71.36 37.28 75.7333 34.9867 79.7333 33.0134C83.2 31.3067 86.0267 29.8134 90.6667 29.8134C95.4667 29.8134 98.1333 31.1467 101.6 33.0134C104.373 34.4 107.36 35.9467 111.36 36.7467C112.085 36.8881 112.832 36.8676 113.548 36.6867C114.264 36.5058 114.931 36.1689 115.502 35.7001C116.073 35.2313 116.533 34.6422 116.85 33.9749C117.166 33.3076 117.331 32.5786 117.333 31.84V31.36C117.333 28.9067 115.52 26.9867 113.12 26.4534C110.667 25.92 108.693 24.96 106.4 23.7867ZM90.6667 43.1467C83.4667 43.1467 78.9333 45.44 74.9333 47.4134C71.4667 49.28 68.8 50.6134 64 50.6134C59.2 50.6134 56.5333 49.28 53.0667 47.4134C49.0667 45.3867 44.6933 43.1467 37.3333 43.1467C29.9733 43.1467 25.6 45.44 21.6 47.4134C19.3067 48.64 17.3333 49.6534 14.88 50.1867C12.48 50.72 10.6667 52.64 10.6667 55.0934V55.5734C10.667 56.3105 10.8316 57.0383 11.1485 57.7039C11.4655 58.3694 11.9268 58.956 12.4989 59.4208C13.071 59.8857 13.7396 60.2172 14.4559 60.3912C15.1723 60.5652 15.9184 60.5773 16.64 60.4267C20.64 59.6267 23.6267 58.08 26.4 56.7467C29.8667 55.04 32.6933 53.5467 37.3333 53.5467C41.9733 53.5467 44.8 54.88 48.2667 56.7467C52.2667 58.7734 56.64 61.0134 64 61.0134C71.36 61.0134 75.7333 58.72 79.7333 56.7467C83.2 55.04 86.0267 53.5467 90.6667 53.5467C95.4667 53.5467 98.1333 54.88 101.6 56.7467C104.373 58.1334 107.36 59.68 111.36 60.48C112.081 60.6207 112.823 60.6013 113.535 60.4234C114.248 60.2455 114.912 59.9134 115.482 59.4505C116.052 58.9875 116.513 58.4051 116.833 57.7444C117.153 57.0837 117.323 56.3607 117.333 55.6267V55.1467C117.333 52.6934 115.52 50.7734 113.12 50.24C110.667 49.7067 108.693 48.6934 106.4 47.4667C102.4 45.3867 97.8667 43.1467 90.6667 43.1467Z" fill="#0D6C8D"/>
</svg>
