<svg width="64" height="64" viewBox="0 0 64 64" fill="none" xmlns="http://www.w3.org/2000/svg">
<g clip-path="url(#clip0_400_139)">
<path d="M31.27 2.4201L5.19 15.8651C4.62 16.2001 4.455 16.7001 4.46 17.4251L4.51 18.3301L32.045 32.4501L59.515 18.5551C59.515 18.5551 59.545 18.4151 59.545 17.9251C59.545 17.9251 59.52 17.2801 59.375 16.9801C59.215 16.6401 58.875 16.3351 58.655 16.1501C58.07 15.6651 57.485 15.2351 56.49 14.6751C42.225 6.6101 32.845 2.4551 32.845 2.4551C32.24 2.2301 31.74 2.1501 31.27 2.4201Z" fill="#DEA66C"/>
<path d="M4.87 48.0799C6.39 49.0849 9.165 50.4049 11.97 51.9249C18.49 55.4549 26.73 59.7449 30.83 61.4299C31.385 61.6599 31.715 61.7699 32.1 61.7899C32.385 61.8049 32.855 61.6149 32.855 61.6149C32.855 61.6149 32.09 34.0199 32.045 32.4449C32 30.9049 31.355 30.3949 30.785 30.0249C29.895 29.4549 27.965 28.5649 27.965 28.5649C27.965 28.5649 21.205 25.2049 14.455 21.6649C11.245 19.9799 8.535 18.2549 5.62 16.8349C5.085 16.5799 4.455 16.8999 4.455 17.4999V47.3999C4.455 47.6849 4.63 47.9249 4.87 48.0799Z" fill="#B38251"/>
<path d="M58.79 48.2552L32.91 61.6002C32.495 61.8152 32 61.5152 32 61.0452L32.045 32.4552C32.045 32.1802 31.96 31.5752 31.875 31.3352C31.64 30.6352 32.15 30.3552 32.38 30.2402L58.05 17.0202C58.73 16.6702 59.545 17.1652 59.545 17.9302V47.0252C59.545 47.5402 59.255 48.0152 58.79 48.2552Z" fill="#966239"/>
<path opacity="0.5" d="M47.23 23.7948C47.23 23.7948 33.045 31.0498 32.815 31.6648C32.585 32.2748 43.945 26.8148 45.275 26.1298C46.78 25.3548 58.6 19.0348 58.6 18.3398C58.605 17.7698 47.23 23.7948 47.23 23.7948Z" fill="#212121"/>
<g opacity="0.5">
<path d="M6.405 46.4253C8.25 47.3553 10.08 48.3153 12.36 49.4803V48.5903C10.09 47.4303 8.255 46.4753 6.405 45.5353V46.4253ZM10.29 46.8303C10.81 47.0953 11.07 47.2303 11.56 47.4803C11.565 45.9303 11.565 45.1553 11.57 43.6053C11.08 43.3553 10.825 43.2253 10.31 42.9603C10.3 44.5103 10.295 45.2803 10.29 46.8303ZM7.06 45.1703C7.49 45.3903 7.73 45.5153 8.22 45.7653L8.245 41.9053C7.75 41.6503 7.51 41.5303 7.075 41.3003C7.07 42.8503 7.065 43.6253 7.06 45.1703Z" fill="#212121"/>
<path d="M9.475 42.9951C10.66 43.6001 11.29 43.9251 12.335 44.4551C11.815 43.5101 11.53 43.0301 10.96 42.0601C10.375 42.4401 10.07 42.6251 9.475 42.9951ZM6.405 41.4201C7.29 41.8801 7.885 42.1851 9.055 42.7851C8.475 41.8101 8.185 41.3251 7.65 40.3701C7.105 40.7651 6.85 40.9701 6.405 41.4201Z" fill="#212121"/>
</g>
<g opacity="0.5">
<path d="M15.905 50.7C16.32 50.915 16.535 51.03 16.95 51.245C16.92 49.405 16.905 48.485 16.87 46.645C16.47 46.435 16.27 46.33 15.87 46.125C15.885 47.955 15.89 48.87 15.905 50.7Z" fill="#212121"/>
<path d="M14.38 50.3749C15.9 51.1749 17.08 51.7749 18.54 52.5549C18.53 52.0299 18.125 51.3949 17.575 51.0999C16.715 50.6449 16.225 50.3949 15.355 49.9399C14.795 49.6549 14.38 49.8599 14.38 50.3749ZM17.275 45.1799L17.915 46.5349C17.715 46.9599 17.61 47.1749 17.4 47.5949C17.58 47.5799 17.67 47.5749 17.85 47.5599C18.09 47.2399 18.21 47.0799 18.44 46.7599C18.23 46.2649 18.12 46.0149 17.9 45.5199C18.51 45.8549 18.81 46.0249 19.365 46.3499C19.365 48.1399 18.195 48.9299 16.435 48.0099C14.675 47.0949 13.51 45.0499 13.51 43.2549C14.82 43.9099 15.7 44.3399 17.275 45.1799Z" fill="#212121"/>
</g>
<path d="M50.37 20.7452C50.12 20.5602 23.275 6.53516 23.275 6.53516L14.945 10.8402L42.47 25.0352L42.485 25.0502L50.54 20.9252C50.54 20.9252 50.525 20.8852 50.48 20.8352C50.445 20.8052 50.385 20.7602 50.37 20.7452Z" fill="#FFE0B2"/>
<path d="M50.5 20.8652C45.94 23.1102 42.47 25.0352 42.47 25.0352C42.585 25.1502 42.59 25.3002 42.59 25.3752C42.575 25.9552 42.565 26.4152 42.55 26.9902C42.48 29.9652 42.44 32.9452 42.34 35.9202C42.675 35.7202 43.08 36.1602 43.385 35.9202C43.855 35.5502 44.855 33.9202 45.005 33.8702C45.205 33.8052 45.42 33.8552 45.625 33.8452C46.525 33.7952 48.54 31.9602 48.97 31.8752C49.385 31.7952 50.755 32.0602 50.755 32.0602C50.755 32.0602 50.66 22.9852 50.625 21.4602C50.615 20.9202 50.5 20.8652 50.5 20.8652Z" fill="#BF9F85"/>
</g>
<defs>
<clipPath id="clip0_400_139">
<rect width="64" height="64" fill="white"/>
</clipPath>
</defs>
</svg>
