<svg width="64" height="64" viewBox="0 0 64 64" fill="none" xmlns="http://www.w3.org/2000/svg">
<path d="M34.915 25.2649L34.715 16.0499C34.715 16.0499 39.52 13.5099 40.44 11.8349C41.36 10.1599 40.98 7.34986 39.955 7.24486C38.93 7.13986 34.5 10.3799 34.125 9.99986C33.745 9.61986 35.96 6.91986 35.855 5.89486C35.745 4.86986 32.45 2.35986 32.45 2.35986L28.725 6.59486C28.725 6.59486 29.805 9.94486 29.645 10.2699C29.485 10.5949 24.405 7.45986 23.325 7.67486C22.245 7.88986 22.615 10.0849 22.99 11.1149C23.37 12.1399 30.29 15.3449 30.29 15.3449L29.99 25.4049C29.99 25.4049 28.725 25.3849 28.4 25.5499C28.075 25.7099 27.3 27.0099 27.3 27.0099C27.3 27.0099 20.025 23.0699 19.97 22.2599C19.915 21.4499 20.08 14.2099 19.7 13.4549C19.32 12.6999 17.7 11.8199 16.89 11.8199C16.08 11.8199 15.54 19.8249 15.055 19.8249C14.57 19.8249 12.73 15.1249 12.19 15.1249C11.65 15.1249 7.46501 15.8249 7.46501 15.8249L9.06001 22.1999L14.03 23.2249L7.94501 30.1049C7.94501 30.1049 9.43501 31.5549 10.84 31.2299C12.245 30.9049 16.295 26.8549 16.725 26.8549C17.155 26.8549 24.505 31.0699 24.505 31.0699C24.505 31.0699 24.18 31.8249 24.395 32.2599C24.61 32.6899 24.99 33.2299 24.99 33.2299C24.99 33.2299 17.7 37.6599 17.21 37.5499C16.72 37.4399 11.81 33.9299 10.405 33.9299C9.00001 33.9299 8.13501 35.7649 8.13501 35.7649L13.97 40.6799L9.05501 43.1099L6.95001 47.4849C6.95001 47.4849 11.705 49.1599 12.35 48.9949C12.995 48.8299 14.675 44.8349 14.995 44.7299C15.32 44.6199 15.44 45.6399 15.44 45.6399C15.44 45.6399 17.155 50.9999 17.805 50.8349C18.455 50.6699 20.075 49.6449 20.29 48.8349C20.505 48.0249 19.97 41.5999 19.97 41.5999L27.64 37.4349C27.64 37.4349 28.25 38.4249 28.665 38.7249C28.99 38.9599 30.605 39.1149 30.605 39.1149L30.39 47.4849C30.39 47.4849 22.39 50.9349 22.12 51.9049C21.85 52.8749 21.91 55.0449 22.67 55.3149C23.425 55.5849 29.325 52.8849 29.595 53.0999C29.865 53.3149 29.48 57.3099 29.48 57.3099C29.48 57.3099 32.65 61.7899 33.35 61.3599C34.05 60.9299 36.505 58.1799 36.525 57.6699C36.57 56.7049 34.165 53.3799 34.21 53.1849C34.305 52.7599 39.2 56.2849 40.065 56.1749C40.93 56.0649 41.575 55.1499 41.575 54.1199C41.575 53.0949 34.985 48.2349 34.985 48.2349L34.88 38.9499C34.88 38.9499 36.155 38.8799 36.59 38.6649C37.02 38.4499 37.88 36.4949 37.88 36.4949L45.735 41.7599C45.735 41.7599 45.41 50.6199 46.22 51.1599C47.03 51.6999 48.49 52.0249 49.03 51.7549C49.57 51.4849 49.625 43.9249 49.625 43.9249L53.03 47.0049C53.03 47.0049 57.92 46.5699 57.92 45.9199C57.92 45.2699 56.94 41.5999 56.545 41.2799C55.84 40.7099 52.73 40.9899 52.365 40.7949C52.075 40.6399 58.055 38.2549 58.055 37.2849C58.055 36.3149 56.1 34.7799 55.56 34.7249C55.02 34.6699 47.955 37.8249 47.955 37.8249L39.745 32.9649C39.745 32.9649 40.175 32.2099 40.175 31.8299C40.175 31.4499 39.64 30.8149 39.64 30.8149L48.06 26.2149C48.06 26.2149 55.46 28.8599 56.16 28.5399C56.86 28.2149 57.455 27.6199 57.455 27.0299C57.455 26.4399 51.205 23.5649 51.675 23.3049C52.035 23.1049 55.51 23.5199 56.05 23.3049C56.59 23.0899 58.31 18.7099 58.255 18.4949C58.2 18.2799 52.375 16.8249 52.375 16.8249L49.78 19.9049C49.78 19.9049 50.21 14.0699 49.565 13.4249C48.92 12.7799 47.175 13.0999 46.475 13.5849C45.775 14.0699 45.355 22.6599 45.355 22.6599L37.435 26.9549C37.435 26.9549 36.695 25.7649 36.26 25.5449C35.835 25.3099 34.915 25.2649 34.915 25.2649Z" fill="#95C7EC"/>
<path d="M38.22 28.0249L47.5 23.1849L47.36 13.1999C47.36 13.1999 45.92 13.4449 45.215 14.3849C44.51 15.3249 44.745 21.6399 44.745 21.6399L36.715 26.0049L38.22 28.0249ZM49.74 21.9499C49.74 21.9499 52.78 18.1699 53.365 17.9799C54.345 17.6599 58.13 18.9899 58.13 18.9899C58.13 18.9899 58.55 17.9449 58.38 17.5399C58.21 17.1349 53.555 15.0549 52.44 15.4499C51.57 15.7599 49.8 19.1199 49.8 19.1199L49.74 21.9499ZM49.48 25.3699C49.28 25.3349 47.66 26.3949 47.66 26.3949C47.66 26.3949 52.47 29.3099 53.88 29.3749C55.62 29.4599 56.77 28.1899 56.77 28.1899C56.77 28.1899 55.525 28.2249 54.62 27.8899C53.145 27.3399 49.48 25.3699 49.48 25.3699ZM38.595 35.0449L37.455 37.3649C37.455 37.3649 44.31 41.6299 44.34 41.8349C44.375 42.0349 44.17 49.4249 44.88 50.2649C45.585 51.1049 46.93 51.5399 46.93 51.5399C46.93 51.5399 47.335 40.6549 47.3 40.4849C47.26 40.3149 38.595 35.0449 38.595 35.0449ZM47.34 37.4399C47.34 37.4399 52.17 34.1699 53.48 34.1699C54.79 34.1699 55.9 34.8399 55.9 34.8399L49.51 38.7049L47.34 37.4399ZM49.85 42.3549C49.68 42.8249 49.595 44.5849 49.595 44.5849C49.595 44.5849 51.165 48.2799 52.27 48.6799C53.38 49.0849 57.61 47.5049 57.95 47.0999C58.285 46.6949 57.79 45.0549 57.79 45.0549C57.79 45.0549 54.445 46.3799 53.445 46.1949C52.165 45.9599 49.85 42.3549 49.85 42.3549ZM29.515 27.4199C29.03 27.9049 26.915 31.0099 26.875 31.6099C26.835 32.2149 29.19 36.2399 29.755 36.5599C30.32 36.8799 34.87 36.5599 34.87 36.5599L37.205 31.7649C37.205 31.7649 35.15 27.3749 34.83 27.2949C34.51 27.2149 29.84 27.0949 29.515 27.4199ZM31.59 11.0299C31.91 11.0899 30.405 6.55488 30.405 6.55488L33.735 3.40988C33.735 3.40988 32.495 1.87988 31.855 1.87988C31.21 1.87988 27.705 5.13988 27.705 5.90988C27.705 6.67988 29.64 10.2699 29.64 10.2699C29.64 10.2699 30.98 10.9149 31.59 11.0299ZM22.62 9.46488C22.62 9.46488 22.625 11.7299 23.35 12.5349C24.075 13.3399 29.235 15.8649 29.235 15.8649L29.365 25.4199L31.61 25.4099V14.2899C31.61 14.2899 27.14 12.1549 26.255 11.7549C25.37 11.3499 23.265 10.3099 22.62 9.46488ZM19.81 23.8349L26.575 28.1049L27.665 26.4549L19.97 21.9449L19.81 23.8349ZM14.985 19.8699C14.985 19.8699 16.415 21.2749 16.725 21.2649C17.325 21.2449 17.285 11.8899 17.285 11.8899C17.285 11.8899 16.13 11.4549 15.525 12.0199C14.915 12.5799 14.985 19.8699 14.985 19.8699ZM14.255 22.1449C15.69 22.5099 15.42 23.5149 15.22 23.8349C15.02 24.1549 8.45501 30.5199 8.45501 30.5199C8.45501 30.5199 7.20501 29.8349 7.20501 29.1099C7.20501 28.3849 12.9 23.6999 12.6 23.6299C12.365 23.5799 8.29001 24.2649 7.40501 23.7099C6.83501 23.3549 5.25501 17.4099 5.55501 16.6099C5.79501 15.9649 7.85001 15.7749 7.85001 15.7749C7.85001 15.7749 8.57501 21.0899 9.14001 21.3749C9.70001 21.6599 13.11 21.8549 14.255 22.1449ZM24.85 32.9849L16.83 37.3849L18.845 39.0199L25.85 34.5099L24.85 32.9849ZM15.705 40.3899C15.645 41.0749 12.825 42.4549 12.585 42.6599C12.345 42.8599 9.70501 42.2449 9.54001 42.4849C9.38001 42.7249 7.86501 47.3849 7.58001 47.6599C7.54001 47.6999 5.93501 47.1999 5.81501 46.9349C5.52501 46.2999 7.32501 41.2749 8.13001 40.5499C8.93501 39.8249 12.48 40.7499 12.6 40.5099C12.72 40.2699 7.97001 37.6899 7.60501 36.8849C7.24501 36.0799 8.77501 34.7899 8.77501 34.7899C8.77501 34.7899 15.785 39.4599 15.705 40.3899ZM16.745 43.0499C16.48 42.8649 15.085 44.7199 15.085 44.7199C15.085 44.7199 15.575 50.7149 16.03 51.0999C16.49 51.4899 17.815 50.8299 17.815 50.8299C17.815 50.8299 17.145 43.3299 16.745 43.0499ZM29.6 38.9649C29.6 38.9649 29.675 46.4299 29.515 46.7099C29.355 46.9899 23.28 49.8749 22.425 50.9799C21.845 51.7299 21.995 53.7049 21.995 53.7049C21.995 53.7049 31.325 48.4449 31.525 48.2849C31.725 48.1249 31.57 38.9899 31.57 38.9899L29.6 38.9649ZM41.565 54.2849C41.565 54.2849 35.15 50.3099 35.075 49.7749C35 49.2649 34.96 47.0549 34.96 47.0549C34.96 47.0549 40.595 51.0199 41.16 51.9449C41.725 52.8699 41.565 54.2849 41.565 54.2849ZM30.2 56.7799C30.3 57.8249 34.01 60.8049 34.01 60.8049C34.01 60.8049 32.835 62.0749 32.23 62.1149C31.625 62.1549 27.66 58.3499 27.58 57.7099C27.5 57.0649 29.595 52.9999 29.595 52.9999C29.595 52.9999 30.535 52.5499 31.245 52.3999C31.695 52.2999 30.105 55.7649 30.2 56.7799Z" fill="#AFE3FF"/>
<path d="M35.5 31.2448C35.5 31.2448 34.905 32.4298 34.61 33.0998C34.315 33.7698 33.945 34.9148 33.945 34.9148C33.945 34.9148 31.165 35.1298 30.425 35.0998C29.46 35.0648 28.905 36.8048 30.315 36.8398C31.725 36.8748 35.095 36.9498 35.39 36.7298C35.685 36.5098 37.87 32.5048 37.87 31.6148C37.87 30.7248 35.945 28.2448 35.24 27.5398C34.42 26.7198 32.98 27.5398 33.795 28.8748C34.61 30.2098 35.5 31.2448 35.5 31.2448ZM46.715 14.8148C45.585 14.7748 45.67 16.3048 45.71 18.0748C45.75 19.8448 45.87 21.0148 46.795 21.0148C47.925 21.0148 47.72 18.5598 47.72 17.4298C47.72 16.3048 47.885 14.8548 46.715 14.8148ZM31.895 3.77981C32.55 4.43481 31.655 5.54981 31.29 5.87481C30.93 6.19481 29.92 6.83981 29.235 6.19481C28.55 5.54981 29.355 4.62481 30 4.13981C30.645 3.65481 31.41 3.29481 31.895 3.77981ZM31.65 13.9298C30.605 13.8098 30.645 16.3848 30.685 19.5298C30.735 23.5598 30.685 25.4498 31.53 25.4098C32.495 25.3648 32.215 23.3548 32.215 19.1648C32.215 16.8648 32.455 14.0198 31.65 13.9298ZM7.485 16.5448C6.12 16.9698 6.72 18.6398 7.08 19.8498C7.31 20.6198 8.01 22.8148 9.295 22.4298C10.58 22.0448 9.82 20.2148 9.535 19.0448C9.26 17.8748 8.655 16.1848 7.485 16.5448ZM46.15 44.7798C45.345 44.7798 45.265 46.3098 45.265 47.6798C45.265 49.0498 45.265 50.0548 46.19 50.0548C47.115 50.0548 46.955 48.0398 46.955 47.3148C46.955 46.5898 47.08 44.7798 46.15 44.7798ZM31.57 38.9398C30.885 38.9698 30.805 40.5098 30.805 43.5298C30.805 46.5498 30.64 48.3348 31.65 48.2848C32.455 48.2448 32.295 45.2248 32.295 43.1698C32.295 41.1148 32.54 38.8998 31.57 38.9398ZM18.605 38.9698C19.01 39.4398 21.08 38.1248 22.57 37.3048C24.36 36.3198 26.345 35.3748 25.925 34.5398C25.505 33.7048 23.41 35.1848 21.96 35.9398C20.51 36.6998 17.92 38.1748 18.605 38.9698ZM12.355 42.8848C11.92 43.2098 10.705 43.0048 10.18 43.4098C9.655 43.8148 9.545 45.1848 8.93 45.4248C8.005 45.7848 7.28 45.1448 7.76 43.8948C8.245 42.6448 8.405 41.7998 8.845 41.4798C9.29 41.1598 10.9 41.2398 11.545 41.2398C12.675 41.2348 13 42.3998 12.355 42.8848Z" fill="#FEFEFE"/>
</svg>
