<svg width="107" height="32" viewBox="0 0 107 32" fill="none" xmlns="http://www.w3.org/2000/svg">
<g clip-path="url(#clip0_477_1840)">
<path fill-rule="evenodd" clip-rule="evenodd" d="M66.1025 25.0251C59.9245 29.5735 50.9699 32.0001 43.2601 32.0001C32.4498 32.0001 22.7178 28.0065 15.3551 21.3643C14.7766 20.842 15.2949 20.1302 15.9891 20.5369C23.9348 25.1546 33.7595 27.9325 43.908 27.9325C50.7524 27.9325 58.2817 26.5181 65.2047 23.583C66.2506 23.1393 67.1252 24.2671 66.1025 25.0251Z" fill="#80838D"/>
<path fill-rule="evenodd" clip-rule="evenodd" d="M68.6708 22.09C67.8841 21.0824 63.4508 21.6139 61.4609 21.8497C60.8546 21.9236 60.7621 21.3967 61.3081 21.0177C64.8391 18.5355 70.633 19.2519 71.3086 20.084C71.9843 20.9206 71.1328 26.7215 67.8147 29.4903C67.3056 29.9155 66.8197 29.689 67.0465 29.1251C67.7916 27.267 69.4622 23.1023 68.6708 22.09Z" fill="#80838D"/>
<path fill-rule="evenodd" clip-rule="evenodd" d="M61.5997 3.49464V1.08182C61.5997 0.71666 61.8774 0.47168 62.2106 0.47168H73.0255C73.3726 0.47168 73.6503 0.721283 73.6503 1.08182V3.14797C73.6457 3.49464 73.3541 3.94763 72.8358 4.66408L67.2317 12.656C69.3141 12.6051 71.5123 12.9148 73.4004 13.978C73.8261 14.2183 73.9418 14.5696 73.9742 14.9163V17.4909C73.9742 17.8422 73.5855 18.2536 73.1783 18.0409C69.8509 16.2983 65.4315 16.1088 61.7524 18.0594C61.3776 18.2628 60.9843 17.856 60.9843 17.5047V15.0596C60.9843 14.6667 60.9889 13.9964 61.3822 13.4002L67.8749 4.10016H62.2245C61.8774 4.10016 61.5997 3.85518 61.5997 3.49464Z" fill="#80838D"/>
<path fill-rule="evenodd" clip-rule="evenodd" d="M22.1485 18.549H18.8582C18.5435 18.5259 18.2936 18.2902 18.2705 17.9897V1.12306C18.2705 0.78563 18.5528 0.517537 18.9045 0.517537H21.9727C22.292 0.531394 22.5465 0.776383 22.5696 1.08145V3.28628H22.6298C23.4304 1.15541 24.9344 0.161621 26.9613 0.161621C29.0207 0.161621 30.3072 1.15541 31.2327 3.28628C32.0287 1.15541 33.8381 0.161621 35.7771 0.161621C37.1562 0.161621 38.6648 0.73016 39.5857 2.00591C40.627 3.42494 40.4141 5.48647 40.4141 7.29378L40.4095 17.9389C40.4095 18.2763 40.1272 18.549 39.7755 18.549H36.4898C36.1612 18.5259 35.8974 18.2624 35.8974 17.9389V8.9994C35.8974 8.28757 35.9622 6.51262 35.8049 5.83777C35.5596 4.70531 34.8238 4.38637 33.8705 4.38637C33.0745 4.38637 32.2416 4.91794 31.9037 5.76844C31.5659 6.61893 31.5983 8.04259 31.5983 8.9994V17.9389C31.5983 18.2763 31.316 18.549 30.9643 18.549H27.6786C27.3454 18.5259 27.0863 18.2624 27.0863 17.9389L27.0817 8.9994C27.0817 7.11814 27.3917 4.3494 25.0547 4.3494C22.69 4.3494 22.7825 7.0488 22.7825 8.9994V17.9389C22.7825 18.2763 22.5002 18.549 22.1485 18.549Z" fill="#80838D"/>
<path fill-rule="evenodd" clip-rule="evenodd" d="M82.9612 0.161621C87.8434 0.161621 90.4859 4.3494 90.4859 9.67425C90.4859 14.8188 87.5658 18.9003 82.9612 18.9003C78.1669 18.9003 75.5569 14.7125 75.5569 9.49398C75.5569 4.24308 78.1993 0.161621 82.9612 0.161621ZM82.989 3.60521C80.5641 3.60521 80.4113 6.90551 80.4113 8.96242C80.4113 11.024 80.379 15.4244 82.9612 15.4244C85.5111 15.4244 85.6314 11.8745 85.6314 9.71123C85.6314 8.28757 85.5712 6.58658 85.1409 5.23687C84.7706 4.06282 84.0348 3.60521 82.989 3.60521Z" fill="#80838D"/>
<path fill-rule="evenodd" clip-rule="evenodd" d="M96.8166 18.549H93.5402C93.2116 18.5259 92.9479 18.2624 92.9479 17.9389L92.9432 1.06759C92.971 0.757894 93.244 0.517537 93.5772 0.517537H96.6269C96.9138 0.531394 97.1498 0.725539 97.2146 0.989009V3.56823H97.2748C98.1957 1.26172 99.4868 0.161621 101.759 0.161621C103.235 0.161621 104.674 0.693183 105.6 2.1492C106.461 3.4989 106.461 5.76843 106.461 7.40009V18.0175C106.424 18.3133 106.151 18.549 105.827 18.549H102.527C102.226 18.5259 101.977 18.304 101.944 18.0175V8.85611C101.944 7.01183 102.157 4.31242 99.8848 4.31242C99.0842 4.31242 98.3484 4.8486 97.9828 5.66212C97.52 6.69289 97.4599 7.71903 97.4599 8.85611V17.9389C97.4552 18.2763 97.1683 18.549 96.8166 18.549Z" fill="#80838D"/>
<path fill-rule="evenodd" clip-rule="evenodd" d="M52.9784 10.4926C52.9784 11.7729 53.0108 12.8407 52.3629 13.9777C51.84 14.9022 51.007 15.4707 50.0861 15.4707C48.8227 15.4707 48.0823 14.5093 48.0823 13.0903C48.0823 10.2892 50.5951 9.78072 52.9784 9.78072V10.4926ZM56.2964 18.5029C56.0789 18.6971 55.7642 18.7109 55.519 18.5815C54.4268 17.6756 54.2278 17.2549 53.6309 16.3906C51.8261 18.2302 50.5442 18.7803 48.2072 18.7803C45.4352 18.7803 43.2833 17.0747 43.2833 13.6588C43.2833 10.9918 44.7272 9.17521 46.7911 8.28773C48.5774 7.50194 51.0718 7.36328 52.9784 7.14603V6.72078C52.9784 5.93962 53.0385 5.01516 52.5758 4.34031C52.1778 3.73479 51.4096 3.48519 50.7293 3.48519C49.4752 3.48519 48.3599 4.12769 48.0869 5.4589C48.0314 5.75473 47.8139 6.04593 47.513 6.0598L44.3246 5.71775C44.0561 5.65766 43.7554 5.44041 43.834 5.02903C44.5652 1.16482 48.0637 0 51.1921 0C52.7933 0 54.885 0.42525 56.1483 1.63628C57.7495 3.12928 57.5968 5.12148 57.5968 7.28932V12.4108C57.5968 13.95 58.2354 14.6249 58.837 15.4569C59.0453 15.7527 59.0916 16.1086 58.8231 16.3305C58.1521 16.8898 56.9582 17.9298 56.301 18.5122L56.2964 18.5029Z" fill="#80838D"/>
<path fill-rule="evenodd" clip-rule="evenodd" d="M9.84348 10.4926C9.84348 11.7729 9.87587 12.8407 9.22799 13.9777C8.70506 14.9022 7.8767 15.4707 6.95116 15.4707C5.6878 15.4707 4.95199 14.5093 4.95199 13.0903C4.95199 10.2892 7.46484 9.78072 9.84348 9.78072V10.4926ZM13.1615 18.5029C12.944 18.6971 12.6294 18.7109 12.3841 18.5815C11.292 17.6756 11.0976 17.2549 10.496 16.3906C8.69118 18.2302 7.41394 18.7803 5.07231 18.7803C2.30494 18.7803 0.148438 17.0747 0.148438 13.6588C0.148438 10.9918 1.59691 9.17521 3.65624 8.28773C5.44253 7.50194 7.93686 7.36328 9.84348 7.14603V6.72078C9.84348 5.93962 9.90364 5.01516 9.4455 4.34031C9.04288 3.73479 8.27469 3.48519 7.59904 3.48519C6.34494 3.48519 5.22503 4.12769 4.95199 5.4589C4.89646 5.75473 4.67896 6.04593 4.38279 6.0598L1.18967 5.71775C0.921264 5.65766 0.62509 5.44041 0.699134 5.02903C1.43494 1.16482 4.92885 0 8.05719 0C9.65837 0 11.7501 0.42525 13.0135 1.63628C14.6146 3.12928 14.4619 5.12148 14.4619 7.28932V12.4108C14.4619 13.95 15.1006 14.6249 15.7022 15.4569C15.915 15.7527 15.9613 16.1086 15.6929 16.3305C15.0219 16.8898 13.8279 17.9298 13.1708 18.5122L13.1615 18.5029Z" fill="#80838D"/>
</g>
<defs>
<clipPath id="clip0_477_1840">
<rect width="106.312" height="32" fill="white" transform="translate(0.148438)"/>
</clipPath>
</defs>
</svg>
