<svg width="103" height="32" viewBox="0 0 103 32" fill="none" xmlns="http://www.w3.org/2000/svg">
<path d="M12.7958 11.4182V14.8364H21.0449C20.8259 16.7273 20.1689 18.1818 19.1469 19.1273C17.9789 20.2909 16.0809 21.6 12.7958 21.6C7.7588 21.6 3.81678 17.5273 3.81678 12.5091C3.81678 7.49091 7.6858 3.41818 12.7958 3.41818C15.4969 3.41818 17.5409 4.50909 19.0009 5.89091L21.4099 3.49091C19.3659 1.52727 16.5919 0 12.7958 0C5.86079 0 0.020752 5.6 0.020752 12.5091C0.020752 19.4182 5.86079 25.0182 12.7958 25.0182C16.5189 25.0182 19.3659 23.7818 21.5559 21.5273C23.8189 19.2727 24.5489 16.0727 24.5489 13.5273C24.5489 12.7273 24.4759 12 24.4029 11.4182H12.7958Z" fill="#80838D"/>
<path d="M34.7689 8.58203C30.3159 8.58203 26.5929 12.0002 26.5929 16.6548C26.5929 21.3093 30.2429 24.7275 34.7689 24.7275C39.295 24.7275 42.945 21.382 42.945 16.7275C42.945 12.0002 39.295 8.58203 34.7689 8.58203ZM34.7689 21.6002C32.2869 21.6002 30.1699 19.5638 30.1699 16.7275C30.1699 13.8184 32.2869 11.8548 34.7689 11.8548C37.251 11.8548 39.368 13.8184 39.368 16.7275C39.368 19.5638 37.251 21.6002 34.7689 21.6002Z" fill="#80838D"/>
<path d="M74.7002 10.4002H74.5542C73.7512 9.45476 72.2182 8.58203 70.2472 8.58203C66.1592 8.58203 62.6552 12.0729 62.6552 16.6548C62.6552 21.1638 66.1592 24.7275 70.2472 24.7275C72.2182 24.7275 73.7512 23.8548 74.5542 22.9093H74.7002V24.0729C74.7002 27.1275 73.0212 28.8002 70.3932 28.8002C68.2032 28.8002 66.8892 27.2729 66.3052 25.8911L63.2392 27.2002C64.1152 29.3093 66.5242 32.0002 70.4662 32.0002C74.6272 32.0002 78.2043 29.5275 78.2043 23.5639V9.01839H74.8462V10.4002H74.7002ZM70.6122 21.6002C68.1302 21.6002 66.3052 19.4911 66.3052 16.7275C66.3052 13.8911 68.2032 11.8548 70.6122 11.8548C73.0212 11.8548 74.9192 13.9638 74.9192 16.8002C74.9922 19.5638 73.0942 21.6002 70.6122 21.6002Z" fill="#80838D"/>
<path d="M52.9461 8.58203C48.493 8.58203 44.77 12.0002 44.77 16.6548C44.77 21.3093 48.42 24.7275 52.9461 24.7275C57.4721 24.7275 61.1221 21.382 61.1221 16.7275C61.1221 12.0002 57.4721 8.58203 52.9461 8.58203ZM52.9461 21.6002C50.4641 21.6002 48.347 19.5638 48.347 16.7275C48.347 13.8184 50.4641 11.8548 52.9461 11.8548C55.4281 11.8548 57.5451 13.8184 57.5451 16.7275C57.5451 19.5638 55.4281 21.6002 52.9461 21.6002Z" fill="#80838D"/>
<path d="M80.9053 0.36377H84.4093V24.8001H80.9053V0.36377Z" fill="#80838D"/>
<path d="M95.2134 21.6002C93.3884 21.6002 92.1474 20.8002 91.2714 19.1275L102.148 14.6911L101.783 13.7457C101.126 11.9275 99.0094 8.58203 94.8484 8.58203C90.6874 8.58203 87.1833 11.8548 87.1833 16.6548C87.1833 21.1638 90.6144 24.7275 95.2134 24.7275C98.9364 24.7275 101.053 22.4729 102.002 21.1638L99.2284 19.3457C98.2794 20.7275 97.0384 21.6002 95.2134 21.6002ZM94.9944 11.6366C96.4544 11.6366 97.6954 12.3638 98.0604 13.382L90.7604 16.4366C90.6874 13.0911 93.1694 11.6366 94.9944 11.6366Z" fill="#80838D"/>
</svg>
