<svg width="119" height="32" viewBox="0 0 119 32" fill="none" xmlns="http://www.w3.org/2000/svg">
<path d="M112.646 15.2364L118.979 32C117.123 31.7455 115.23 31.3818 113.337 31.0909L109.77 21.8182L106.094 30.3273C104.31 30.0364 102.526 29.9273 100.706 29.7091L107.149 15.0545L101.325 0H106.749L110.025 8.4L113.519 0H118.979L112.646 15.2364ZM97.0664 0H92.1524V29.0545C93.754 29.1636 95.4284 29.2364 97.0664 29.4182V0ZM87.93 28.7273C83.4528 28.4364 78.9756 28.1455 74.4256 28.0727V0H79.4124V23.3455C82.288 23.4182 85.1636 23.6364 87.93 23.7818V28.7273ZM69.0748 11.3818V16.3636H62.2316V27.7455H57.2812V0H71.2952V4.98182H62.2316V11.3455H69.0748V11.3818ZM48.8727 4.98182V28C47.1983 28 45.4875 28 43.8495 28.0727V4.98182H38.6807V0H54.0779V4.98182H48.8727ZM33.2935 16.6182C31.1095 16.6182 28.4887 16.6182 26.6323 16.7273V24.1455C29.5807 23.9273 32.4927 23.7091 35.4775 23.6V28.4L21.6455 29.4909V0H35.4775V4.98182H26.6323V11.7091C28.5615 11.7091 31.5463 11.6 33.2935 11.6V16.6182ZM5.5567 13.8182V31.2727C3.7731 31.4909 2.17149 31.7455 0.460693 32V0H5.2291L11.7447 18.1818V0H16.7679V29.9273C14.9843 30.2182 13.2007 30.3273 11.3079 30.5818L5.5567 13.8182Z" fill="#80838D"/>
</svg>
