<svg width="146" height="32" viewBox="0 0 146 32" fill="none" xmlns="http://www.w3.org/2000/svg">
<g clip-path="url(#clip0_477_1849)">
<path fill-rule="evenodd" clip-rule="evenodd" d="M77.9727 22.04C76.3967 23.646 74.5127 24.454 72.3277 24.454C70.5607 24.454 69.0597 24.092 67.5277 23.197V19.513C68.7597 20.353 70.3077 21.153 71.8357 21.153C75.0217 21.153 76.9187 18.95 76.9187 15.826C76.9187 12.7 74.9567 10.431 71.7687 10.431C70.3457 10.431 69.1917 10.945 68.2897 11.976C67.3237 13.093 66.8237 14.69 66.8237 16.8V31.347H66.5837C66.1652 31.346 65.7509 31.2625 65.3647 31.1013C64.9784 30.9402 64.6277 30.7046 64.3325 30.4079C64.0373 30.1112 63.8034 29.7593 63.6442 29.3722C63.485 28.9852 63.4036 28.5705 63.4047 28.152V16.255C63.4047 11.206 66.4757 7.13 71.7547 7.13C74.3597 7.13 76.4767 8.025 78.0817 9.825C79.5907 11.506 80.3377 13.636 80.3377 16.2C80.3377 18.48 79.5487 20.431 77.9727 22.04ZM114.995 21.916C113.425 23.609 111.405 24.454 108.957 24.454C106.372 24.454 104.265 23.558 102.662 21.759C101.154 20.057 100.406 17.925 100.406 15.385C100.406 10.888 103.859 7.13 108.404 7.13C110.157 7.13 111.679 7.502 113.216 8.35V12.07C111.984 11.23 110.436 10.43 108.908 10.43C105.722 10.43 103.824 12.634 103.824 15.759C103.824 18.841 105.832 21.154 108.974 21.154C110.396 21.154 111.568 20.618 112.504 19.539C113.436 18.466 113.92 16.89 113.92 14.774V3.195C113.919 2.77648 114 2.36184 114.159 1.97478C114.318 1.58771 114.552 1.23579 114.847 0.939105C115.143 0.642421 115.493 0.406787 115.88 0.245655C116.266 0.0845228 116.68 0.00104926 117.099 0L117.339 0V15.317C117.339 18.014 116.563 20.222 114.995 21.916ZM124.65 5.495C124.291 5.899 123.777 6.085 123.15 6.085C121.976 6.085 121.136 5.215 121.136 4.044C121.136 2.846 121.96 2.037 123.149 2.037C124.294 2.037 125.163 2.89 125.163 4.044C125.163 4.614 124.997 5.105 124.65 5.495ZM142.024 14.774C142.024 13.419 141.514 12.346 140.49 11.534C139.567 10.803 138.414 10.431 137.011 10.431C133.916 10.431 131.929 12.862 131.929 15.861C131.929 18.746 134.036 21.154 136.979 21.154C139.026 21.154 140.12 19.952 141.288 18.454V22.771C140.693 23.219 140.009 23.708 139.311 23.994C138.574 24.304 137.694 24.454 136.677 24.454C131.756 24.454 128.51 20.357 128.51 15.623C128.51 13.192 129.261 11.182 130.774 9.615C132.379 7.954 134.484 7.13 137.062 7.13C141.948 7.13 145.444 9.95 145.444 15.045V24.115H145.204C144.785 24.114 144.371 24.0305 143.984 23.8693C143.598 23.7081 143.247 23.4724 142.952 23.1756C142.656 22.8788 142.423 22.5268 142.263 22.1396C142.104 21.7524 142.023 21.3377 142.024 20.919V14.774ZM95.2157 13.8C94.7837 12.457 94.2417 11.796 92.9957 11.097C90.0327 9.433 87.1157 10.85 85.7597 13.787L95.2157 13.8ZM92.6067 24.403C90.4227 24.87 88.2797 24.51 86.1887 23.336C84.1487 22.191 82.7837 20.489 82.0987 18.239C80.7147 13.689 83.5497 8.619 88.1107 7.392C90.3707 6.783 92.5387 7.059 94.5977 8.215C98.0177 10.137 99.2637 13.109 99.0467 16.939L85.2707 16.91C85.4737 18.472 86.4367 19.694 87.7907 20.454C89.1647 21.225 90.4267 21.41 91.5977 21.044C92.8977 20.634 93.9537 19.567 94.8117 18.574L97.6187 20.63C96.4737 22.69 94.9147 23.91 92.6067 24.403ZM121.44 7.47H124.859V24.115H124.619C124.2 24.114 123.786 24.0304 123.399 23.8692C123.013 23.7081 122.662 23.4723 122.367 23.1755C122.072 22.8788 121.838 22.5267 121.679 22.1395C121.52 21.7523 121.438 21.3376 121.44 20.919V7.47ZM5.4647 24.114C2.1197 24.114 0.460703 21.828 0.460703 18.636V6.523C0.459652 6.10435 0.54107 5.68958 0.700311 5.30239C0.859552 4.91521 1.0935 4.56317 1.38879 4.2664C1.68408 3.96962 2.03493 3.73391 2.42132 3.57273C2.8077 3.41155 3.22205 3.32805 3.6407 3.327H3.8807V7.47H9.6577V10.77H3.8807V19.018C3.8807 20.42 4.5027 20.814 5.8367 20.814H9.6567V24.114H5.4647ZM25.3227 22.011C23.6327 23.638 21.6027 24.454 19.2447 24.454C16.9077 24.454 14.8887 23.637 13.1997 22.011C11.5047 20.377 10.6597 18.298 10.6597 15.792C10.6597 10.904 14.3737 7.13 19.2447 7.13C21.5817 7.13 23.6067 7.953 25.3057 9.592C27.0117 11.235 27.8637 13.308 27.8637 15.792C27.8637 18.298 27.0177 20.377 25.3237 22.011H25.3227ZM41.3107 11.475C40.8087 12.32 40.4197 12.927 40.1457 13.293C39.8447 13.691 39.5467 14.009 39.2517 14.229C41.6277 15.001 42.5127 16.655 42.5127 19.12V24.114H42.2727C41.4274 24.1119 40.6175 23.7741 40.0211 23.175C39.4248 22.5758 39.0908 21.7643 39.0927 20.919V19.459C39.0927 17.863 38.3807 16.78 36.6987 16.78H33.5907V24.114H33.3507C32.5056 24.1116 31.6961 23.7737 31.1001 23.1745C30.5042 22.5754 30.1706 21.7641 30.1727 20.919V3.195C30.1715 2.77652 30.2528 2.36191 30.4119 1.97485C30.5709 1.58779 30.8047 1.23586 31.0998 0.939165C31.395 0.642469 31.7456 0.406818 32.1318 0.245674C32.5181 0.0845299 32.9322 0.00104912 33.3507 0L33.5907 0V13.446H34.6017C35.7117 13.446 36.4417 13.064 36.8617 12.342L39.7327 7.471L43.6297 7.467L41.3087 11.475H41.3107ZM58.9607 22.011C57.2707 23.638 55.2407 24.454 52.8827 24.454C50.5457 24.454 48.5277 23.637 46.8377 22.011C45.1427 20.377 44.2977 18.298 44.2977 15.792C44.2977 10.904 48.0117 7.13 52.8827 7.13C55.2207 7.13 57.2447 7.953 58.9447 9.592C60.6497 11.235 61.5017 13.308 61.5017 15.792C61.5017 18.298 60.6547 20.377 58.9607 22.011ZM56.4927 11.919C55.5507 10.928 54.3537 10.431 52.8827 10.431C49.7357 10.431 47.8527 12.736 47.8527 15.792C47.8527 18.806 49.7807 21.154 52.8827 21.154C55.9857 21.154 57.9127 18.806 57.9127 15.792C57.9127 14.192 57.4347 12.908 56.4927 11.919ZM22.8557 11.919C21.9137 10.928 20.7157 10.431 19.2457 10.431C16.0987 10.431 14.2157 12.736 14.2157 15.792C14.2157 18.806 16.1437 21.154 19.2457 21.154C22.3477 21.154 24.2757 18.806 24.2757 15.792C24.2757 14.192 23.7977 12.908 22.8557 11.919Z" fill="#80838D"/>
</g>
<defs>
<clipPath id="clip0_477_1849">
<rect width="145" height="32" fill="white" transform="translate(0.460693)"/>
</clipPath>
</defs>
</svg>
